<svg width="12" height="16" viewBox="0 0 12 16" fill="none" xmlns="http://www.w3.org/2000/svg">
<g clip-path="url(#clip0_565_34)">
<path d="M3.03506 11.3321C2.7635 11.0605 2.90506 11.1371 2.25006 10.9618C1.95287 10.8821 1.69162 10.7289 1.45537 10.5455L0.0375617 14.0218C-0.0996258 14.3583 0.156624 14.7239 0.519749 14.7102L2.16631 14.6474L3.29881 15.8436C3.54881 16.1074 3.98756 16.0252 4.12475 15.6886L5.75131 11.7005C5.41256 11.8893 5.03662 11.9999 4.64787 11.9999C4.0385 11.9999 3.466 11.7627 3.03506 11.3321V11.3321ZM11.9626 14.0218L10.5447 10.5455C10.3085 10.7293 10.0472 10.8821 9.75006 10.9618C9.09162 11.138 9.236 11.0611 8.96506 11.3321C8.53412 11.7627 7.96131 11.9999 7.35194 11.9999C6.96319 11.9999 6.58725 11.8889 6.2485 11.7005L7.87506 15.6886C8.01225 16.0252 8.45131 16.1074 8.701 15.8436L9.83381 14.6474L11.4804 14.7102C11.8435 14.7239 12.0997 14.358 11.9626 14.0218V14.0218ZM8.21881 10.6249C8.69631 10.1389 8.751 10.1808 9.431 9.99551C9.86506 9.87707 10.2044 9.53176 10.3207 9.08989C10.5544 8.20239 10.4938 8.30957 11.1316 7.6602C11.4494 7.33676 11.5735 6.8652 11.4572 6.42332C11.2238 5.53645 11.2235 5.6602 11.4572 4.77239C11.5735 4.33051 11.4494 3.85895 11.1316 3.53551C10.4938 2.88614 10.5544 2.99301 10.3207 2.10582C10.2044 1.66395 9.86506 1.31864 9.431 1.2002C8.55975 0.962386 8.66475 1.02457 8.02631 0.374886C7.7085 0.0514483 7.24506 -0.0751142 6.811 0.0433233C5.94006 0.280823 6.06162 0.281136 5.18912 0.0433233C4.75506 -0.0751142 4.29162 0.0511358 3.97381 0.374886C3.336 1.02426 3.441 0.962386 2.56944 1.2002C2.13537 1.31864 1.796 1.66395 1.67975 2.10582C1.44631 2.99301 1.50662 2.88614 0.868812 3.53551C0.550999 3.85895 0.426624 4.33051 0.543187 4.77239C0.776624 5.65864 0.776937 5.53489 0.543187 6.42301C0.426937 6.86489 0.550999 7.33645 0.868812 7.6602C1.50662 8.30957 1.446 8.20239 1.67975 9.08989C1.796 9.53176 2.13537 9.87707 2.56944 9.99551C3.26881 10.1861 3.321 10.1561 3.78131 10.6249C4.19475 11.0458 4.83881 11.1211 5.33569 10.8068C5.53438 10.6806 5.76487 10.6136 6.00022 10.6136C6.23557 10.6136 6.46606 10.6806 6.66475 10.8068C7.16131 11.1211 7.80537 11.0458 8.21881 10.6249ZM3.05194 5.49864C3.05194 3.84145 4.37194 2.49801 6.00006 2.49801C7.62819 2.49801 8.94819 3.84145 8.94819 5.49864C8.94819 7.15582 7.62819 8.49926 6.00006 8.49926C4.37194 8.49926 3.05194 7.15582 3.05194 5.49864V5.49864Z" fill="#F3BB06"/>
</g>
<defs>
<clipPath id="clip0_565_34">
<rect width="12" height="16" fill="white"/>
</clipPath>
</defs>
</svg>
