<svg width="16" height="16" viewBox="0 0 16 16" fill="none" xmlns="http://www.w3.org/2000/svg">
<path d="M13.4718 15.2544L15.5379 13.1864C15.6844 13.0405 15.8006 12.8671 15.8799 12.6762C15.9592 12.4853 16 12.2805 16 12.0738C16 11.6524 15.835 11.2563 15.5379 10.9592L13.3126 8.73398C13.1667 8.58746 12.9934 8.47121 12.8024 8.3919C12.6115 8.3126 12.4068 8.2718 12.2 8.27185C11.7786 8.27185 11.3825 8.43689 11.0854 8.73398L9.45825 10.3612C8.61872 9.98028 7.85497 9.45072 7.20388 8.79806C6.54963 8.14703 6.01815 7.38336 5.63495 6.54369L7.26214 4.91651C7.40865 4.77063 7.5249 4.59724 7.60421 4.4063C7.68352 4.21537 7.72432 4.01064 7.72427 3.80388C7.72427 3.38252 7.55922 2.98641 7.26214 2.68932L5.03883 0.462137C4.89269 0.315439 4.71898 0.199088 4.5277 0.119776C4.33642 0.0404647 4.13134 -0.000241138 3.92427 5.42127e-07C3.50291 5.23709e-07 3.1068 0.165049 2.80971 0.462136L0.745631 2.52621C0.269903 3 -3.08749e-07 3.65437 -3.38116e-07 4.32621C-3.44312e-07 4.46796 0.0116499 4.60388 0.0349509 4.73786C0.466019 7.35534 1.85825 9.95146 3.95146 12.0466C6.04272 14.1398 8.63689 15.5301 11.2621 15.967C12.0641 16.099 12.8893 15.833 13.4718 15.2544V15.2544Z" fill="white"/>
</svg>
